<svg xmlns="http://www.w3.org/2000/svg" width="189.12" height="192" viewBox="0 0 189.12 192">
  <g id="Group_2" data-name="Group 2" transform="translate(-866 -444)">
    <g id="Group_1" data-name="Group 1" transform="translate(865.46 442.9)">
      <path id="Path_1" data-name="Path 1" d="M95.2,1.1l11.46,30.87L128.04,6.93l.2,32.92,28.65-16.22L145.82,54.64l32.47-5.45L157.28,74.55l32.38,5.99L161.24,97.17l28.38,16.7-32.4,5.92,20.96,25.4-32.46-5.52,11,31.04-28.62-16.3-.27,32.94-21.32-25.1L94.99,193.1,83.54,162.22,62.16,187.27l-.2-32.93L33.3,170.57l11.08-31.01L11.9,145l21.02-25.35-32.38-6L28.95,97.02.58,80.32,32.97,74.4,12,49l32.47,5.52-11-31.03L62.08,39.78l.28-32.93,21.32,25.1Z" fill="#fff"/>
      <text id="since_2019_" data-name="since
2019
" transform="translate(95.54 84.1)" fill="#1b4ecc" font-size="34" font-family="Cirka-Bold, Cirka" font-weight="700"><tspan x="-37.247" y="0">Since</tspan><tspan x="-33.524" y="41">2019</tspan><tspan x="0" y="82"></tspan></text>
    </g>
  </g>
</svg>
